<svg width="55" height="47" viewBox="0 0 55 47" fill="none" xmlns="http://www.w3.org/2000/svg">
  <path d="M19.0177 45V37.508H10.6111C1.71637 37.508 1.11979 30.8186 1.11979 27.3402C1.02939 20.5617 0.902842 12.7307 1.11979 7.80749C1.33673 2.88423 7.53773 1.2966 10.6111 1.11819C19.1081 1.029 37.8919 0.904135 45.051 1.11819C52.2102 1.33225 54 5.66692 54 7.80749V27.3402C54 33.976 48.034 36.8836 45.051 37.508H27.6955L19.0177 45Z" stroke="#008FF7"/>
  <path d="M27.3884 24.425C27.2217 24.425 27.0884 24.375 26.9884 24.275C26.8884 24.175 26.8384 24.0417 26.8384 23.875V22.675C26.8384 21.9917 26.955 21.375 27.1884 20.825C27.4217 20.275 27.705 19.8 28.0384 19.4C28.3717 18.9833 28.8134 18.4917 29.3634 17.925C30.0467 17.2083 30.5384 16.625 30.8384 16.175C31.155 15.7083 31.3134 15.1833 31.3134 14.6C31.3134 13.7167 30.9384 13.0167 30.1884 12.5C29.4384 11.9667 28.5717 11.7 27.5884 11.7C26.5384 11.7 25.6634 11.975 24.9634 12.525C24.2634 13.075 23.8134 13.9583 23.6134 15.175C23.5467 15.5417 23.3467 15.725 23.0134 15.725H22.6134C22.4634 15.725 22.3384 15.6833 22.2384 15.6C22.1384 15.5 22.0884 15.375 22.0884 15.225C22.105 14.3083 22.355 13.475 22.8384 12.725C23.3217 11.9583 23.9717 11.3583 24.7884 10.925C25.6217 10.475 26.555 10.25 27.5884 10.25C28.705 10.25 29.655 10.45 30.4384 10.85C31.2384 11.25 31.83 11.7833 32.2134 12.45C32.6134 13.1167 32.8134 13.8333 32.8134 14.6C32.8134 15.4667 32.6134 16.2167 32.2134 16.85C31.8134 17.4833 31.2217 18.2083 30.4384 19.025C29.7384 19.7583 29.2134 20.3833 28.8634 20.9C28.53 21.4167 28.3634 22.0083 28.3634 22.675V23.875C28.3634 24.0417 28.3134 24.175 28.2134 24.275C28.1134 24.375 27.98 24.425 27.8134 24.425H27.3884ZM27.0884 28C26.9217 28 26.7884 27.95 26.6884 27.85C26.5884 27.75 26.5384 27.6167 26.5384 27.45V26.5C26.5384 26.3333 26.5884 26.2 26.6884 26.1C26.7884 25.9833 26.9217 25.925 27.0884 25.925H28.0384C28.205 25.925 28.3384 25.9833 28.4384 26.1C28.555 26.2 28.6134 26.3333 28.6134 26.5V27.45C28.6134 27.6167 28.555 27.75 28.4384 27.85C28.3384 27.95 28.205 28 28.0384 28H27.0884Z" fill="#008FF7"/>
</svg>
