<svg width="64" height="44" viewBox="0 0 64 44" fill="none" xmlns="http://www.w3.org/2000/svg">
  <path d="M32.4079 39.6698C32.4079 32.0255 32.4079 17.8834 32.4079 7.56363C25.8816 -0.692261 12.2851 0.556314 6.30263 2.21259C6.30263 10.3665 6.30263 28.4326 6.30263 35.4654C20.3342 33.0192 29.5526 37.2491 32.4079 39.6698ZM32.4079 39.6698C19.7632 36.6121 6.98246 39.6698 1 42.3453V4.50583H6.30263" stroke="#008FF7"/>
  <path d="M32.8158 39.6576C32.8158 32.1668 32.8158 18.3088 32.8158 8.19622C39.0878 0.106128 52.1546 1.32963 57.904 2.95264C57.904 10.9428 57.904 28.6461 57.904 35.5377C44.4191 33.1406 35.5598 37.2855 32.8158 39.6576ZM32.8158 39.6576C44.9679 36.6613 57.2506 39.6576 63 42.2794V5.19983H57.904" stroke="#008FF7"/>
</svg>
