<svg width="49" height="49" viewBox="0 0 49 49" fill="none" xmlns="http://www.w3.org/2000/svg">
  <path d="M30.2801 47.0533V38.8728C30.1806 37.8629 29.7431 35.843 28.7885 35.843C27.5953 35.843 37.7378 36.146 39.2294 26.7535C40.4226 19.2395 38.5871 19.4819 37.1412 17.664C37.5389 16.0481 37.6922 12.5133 36.5446 11.3013C34.4108 10.3925 31.7716 12.4123 30.2801 13.7252C27.8936 13.0182 22.2257 12.0284 18.6459 13.7252C15.6628 10.3925 13.8273 10.9984 12.0831 11.3013C11.4409 12.8163 10.4126 15.9673 12.0831 17.664C9.99494 20.0879 8.50339 22.2088 9.69663 26.7535C10.8899 31.2982 12.6797 35.843 19.8392 35.843C18.6459 37.2973 18.5465 38.4688 18.6459 38.8728C17.2538 39.6807 13.9923 40.5089 12.0831 37.3579C10.1739 34.2069 8.10565 34.2271 7.31016 34.631C7.01185 34.833 6.65388 35.3582 7.60847 35.843C8.80171 36.4489 10.5916 39.4788 10.8899 40.0847C11.1882 40.6907 12.6797 44.0235 18.3476 42.5086C18.3476 43.9629 18.3476 45.7404 18.3476 46.4473C18.4471 47.2553 18.0493 48.5682 15.6628 47.3563C12.6797 45.8414 0.150705 40.6907 1.04564 22.8147C1.76158 8.51396 14.7223 1 23.7172 1C32.7121 1 46.4485 6.0901 47.8803 22.8147C49.3122 39.5394 37.5389 46.5483 31.4733 47.9623C31.0755 48.0633 30.2801 48.0229 30.2801 47.0533Z" stroke="#008FF7"/>
</svg>
