<svg width="68" height="44" viewBox="0 0 68 44" fill="none" xmlns="http://www.w3.org/2000/svg">
  <path d="M44 43.5C46.1667 43.3333 50.5 41.7 50.5 36.5C50.5 31.3 50.6667 28.8333 51 27.5C51.3333 26.1667 53 23.2 55 22C53.6667 21 51.4707 18.3534 51 16C50.5 13.5 50.6667 9.33333 50.5 7.5C50.5 5.33333 49.2 1 44 1" stroke="#008FF7" stroke-linecap="round" stroke-linejoin="round"/>
  <path d="M24 1C21.8333 1.16667 17.5 2.8 17.5 8C17.5 13.2 17.3333 15.6667 17 17C16.6667 18.3333 15 20.8 13 22C14.3333 23 16.5293 26.1466 17 28.5C17.5 31 17.3333 35.1667 17.5 37C17.5 39.1667 18.8 43.5 24 43.5" stroke="#008FF7" stroke-linecap="round" stroke-linejoin="round"/>
  <path d="M28.2414 24C28.1081 24 27.9947 23.96 27.9014 23.88C27.8214 23.7867 27.7814 23.6733 27.7814 23.54V22.1C27.7814 21.9667 27.8214 21.86 27.9014 21.78C27.9947 21.6867 28.1081 21.64 28.2414 21.64H29.6814C29.8147 21.64 29.9281 21.6867 30.0214 21.78C30.1147 21.86 30.1614 21.9667 30.1614 22.1V23.54C30.1614 23.6733 30.1147 23.7867 30.0214 23.88C29.9281 23.96 29.8147 24 29.6814 24H28.2414ZM33.2805 24C33.1471 24 33.0338 23.96 32.9405 23.88C32.8605 23.7867 32.8205 23.6733 32.8205 23.54V22.1C32.8205 21.9667 32.8605 21.86 32.9405 21.78C33.0338 21.6867 33.1471 21.64 33.2805 21.64H34.7205C34.8538 21.64 34.9671 21.6867 35.0605 21.78C35.1538 21.86 35.2005 21.9667 35.2005 22.1V23.54C35.2005 23.6733 35.1538 23.7867 35.0605 23.88C34.9671 23.96 34.8538 24 34.7205 24H33.2805ZM38.3195 24C38.1862 24 38.0729 23.96 37.9795 23.88C37.8995 23.7867 37.8595 23.6733 37.8595 23.54V22.1C37.8595 21.9667 37.8995 21.86 37.9795 21.78C38.0729 21.6867 38.1862 21.64 38.3195 21.64H39.7595C39.8929 21.64 40.0062 21.6867 40.0995 21.78C40.1929 21.86 40.2395 21.9667 40.2395 22.1V23.54C40.2395 23.6733 40.1929 23.7867 40.0995 23.88C40.0062 23.96 39.8929 24 39.7595 24H38.3195Z" fill="#008FF7"/>
</svg>
