<?xml version="1.0" encoding="utf-8"?>
<!-- Generator: Adobe Illustrator 24.0.1, SVG Export Plug-In . SVG Version: 6.00 Build 0)  -->
<svg version="1.1" id="Capa_1" xmlns="http://www.w3.org/2000/svg" xmlns:xlink="http://www.w3.org/1999/xlink" x="0px" y="0px"
	 viewBox="0 0 100 49" style="enable-background:new 0 0 100 49;" xml:space="preserve">
<style type="text/css">
	.st0{fill:#FFF;}
	.st1{fill:#FFF;}
</style>
<g>
	<g>
		<path class="st0" d="M54.07,36.87V12.35l5.03-0.61l0.78,3.84c1.65-2.64,4.03-3.96,7.16-3.96c0.66,0,1.19,0.03,1.6,0.09l-0.09,5.01
			c-0.61-0.09-1.24-0.14-1.9-0.14c-2.21,0-3.86,0.59-4.95,1.76c-1.09,1.17-1.64,2.81-1.64,4.89v13.63H54.07z"/>
		<polygon class="st0" points="78.31,2.95 78.31,7.85 72.29,7.85 72.29,3.37 		"/>
		<rect x="72.29" y="11.74" class="st0" width="5.99" height="25.13"/>
		<path class="st0" d="M85.99,36.87V15.71h-3.98v-3.36l3.98-0.62v-1.4c0-1.52,0.14-2.83,0.42-3.91c0.28-1.08,0.74-2.01,1.38-2.78
			c0.64-0.77,1.5-1.34,2.57-1.71c1.07-0.37,2.4-0.56,3.97-0.56c1.52,0,3.08,0.15,4.67,0.43l-0.53,4.46
			c-1.25-0.17-2.23-0.25-2.95-0.25c-1.28,0-2.19,0.31-2.73,0.93c-0.54,0.62-0.81,1.64-0.81,3.08v1.72h5.14l0.38,3.98h-5.52v21.15
			H85.99z"/>
	</g>
	<g>
		<g>
			<g>
				<rect x="1" y="26.74" class="st1" width="3.1" height="3.1"/>
				<polygon class="st1" points="7.35,29.83 10.44,29.83 10.47,26.74 7.35,26.74 				"/>
				<rect x="12" y="14.06" class="st1" width="10.33" height="3.1"/>
				<rect x="19.23" y="7.73" class="st1" width="3.1" height="3.09"/>
				<rect x="31.91" y="12.36" class="st1" width="3.1" height="10.33"/>
				<rect x="13.68" y="26.74" class="st1" width="3.1" height="10.33"/>
				<rect x="19.23" y="1.38" class="st1" width="3.1" height="3.1"/>
				<rect x="38.26" y="19.59" class="st1" width="3.1" height="3.1"/>
				<rect x="29.22" y="26" class="st1" width="14.78" height="3"/>
				<polygon class="st1" points="26.38,35.39 36.71,35.39 36.73,32.29 26.38,32.29 				"/>
				<rect x="44.59" y="19.61" class="st1" width="3.1" height="3.1"/>
				<rect x="26.36" y="38.62" class="st1" width="3.1" height="3.09"/>
				<rect x="4.7" y="20.45" class="st1" width="14.78" height="3"/>
				<rect x="20.07" y="29.59" class="st1" width="3" height="14.78"/>
				<rect x="26.36" y="44.97" class="st1" width="3.1" height="3.1"/>
				<rect x="25.62" y="5.07" class="st1" width="3" height="14.8"/>
			</g>
		</g>
	</g>
	<g class="st0">
		<path d="M57.04,48.03h-0.73v-5.52h-2.06v-0.65h4.85v0.65h-2.06V48.03z"/>
		<path d="M62.93,46.72l0.59,0.22c-0.28,0.73-1.15,1.27-2.07,1.27c-1.38,0-2.38-1.02-2.38-2.43c0-1.35,0.98-2.33,2.34-2.33
			c1.35,0,2.32,0.99,2.32,2.34c0,0.08,0,0.17-0.01,0.26l-3.97-0.01c0.1,0.93,0.78,1.57,1.65,1.57
			C62.08,47.61,62.71,47.22,62.93,46.72z M63.04,45.47c-0.12-0.84-0.77-1.42-1.64-1.42c-0.86,0-1.5,0.58-1.62,1.41L63.04,45.47z"/>
		<path d="M64.53,46.56h0.65c0,0.61,0.55,1.05,1.3,1.05c0.68,0,1.17-0.33,1.17-0.78c-0.01-1.11-3.03-0.3-3.03-2.05
			c0-0.77,0.74-1.34,1.7-1.34c1.08,0,1.89,0.63,1.89,1.5l-0.66-0.01c0-0.51-0.52-0.87-1.25-0.87c-0.57,0-1.03,0.31-1.03,0.74
			c0,1.08,3.03,0.36,3.03,1.99c0,0.81-0.76,1.43-1.82,1.43C65.35,48.21,64.52,47.51,64.53,46.56z"/>
		<path d="M69.46,44.17h-0.73v-0.55h0.75l0.1-1.03h0.54v1.03h1.15v0.55h-1.15v2.75c0,0.43,0.26,0.72,0.68,0.73
			c0.14,0,0.37-0.04,0.53-0.09v0.55c-0.2,0.06-0.48,0.1-0.7,0.1c-0.73,0-1.18-0.51-1.18-1.27V44.17z"/>
		<path d="M76.34,45.39v2.64h-0.66v-2.64c0-0.78-0.45-1.34-1.22-1.34c-0.77,0-1.44,0.59-1.44,1.4v2.58h-0.66v-4.42h0.66v0.62
			c0.31-0.49,0.9-0.8,1.51-0.8C75.65,43.44,76.34,44.27,76.34,45.39z"/>
		<path d="M81.11,46.72l0.59,0.22c-0.28,0.73-1.15,1.27-2.07,1.27c-1.38,0-2.38-1.02-2.38-2.43c0-1.35,0.98-2.33,2.34-2.33
			c1.35,0,2.32,0.99,2.32,2.34c0,0.08,0,0.17-0.01,0.26l-3.97-0.01c0.1,0.93,0.78,1.57,1.65,1.57
			C80.26,47.61,80.89,47.22,81.11,46.72z M81.22,45.47c-0.12-0.84-0.77-1.42-1.64-1.42c-0.86,0-1.5,0.58-1.62,1.41L81.22,45.47z"/>
		<path d="M83.3,44.17h-0.73v-0.55h0.75l0.1-1.03h0.54v1.03h1.15v0.55h-1.15v2.75c0,0.43,0.26,0.72,0.68,0.73
			c0.14,0,0.37-0.04,0.53-0.09v0.55c-0.2,0.06-0.48,0.1-0.7,0.1c-0.73,0-1.18-0.51-1.18-1.27V44.17z"/>
	</g>
</g>
</svg>
